<?xml version="1.0" standalone="no"?>
<!DOCTYPE svg PUBLIC "-//W3C//DTD SVG 20010904//EN"
 "http://www.w3.org/TR/2001/REC-SVG-20010904/DTD/svg10.dtd">
<svg version="1.0" xmlns="http://www.w3.org/2000/svg"
 width="3867.000000pt" height="2196.000000pt" viewBox="0 0 3867.000000 2196.000000"
 preserveAspectRatio="xMidYMid meet">
<metadata>
Created by potrace 1.16, written by Peter Selinger 2001-2019
</metadata>
<g transform="translate(0.000000,2196.000000) scale(0.100000,-0.100000)"
fill="#000000" stroke="none">
<path d="M16631 17210 c-57 -27 -261 -232 -324 -327 -173 -261 -243 -501 -235
-806 3 -151 3 -153 39 -228 42 -87 92 -149 122 -149 26 0 97 74 97 101 0 12
-16 50 -36 85 -47 84 -59 173 -45 326 24 254 121 481 288 673 90 103 135 139
176 139 18 0 185 -51 372 -114 187 -62 356 -113 375 -113 49 -2 188 51 202 76
8 16 7 23 -8 34 -17 12 -893 304 -954 317 -15 4 -43 -2 -69 -14z"/>
<path d="M18065 16829 c-61 -7 -81 -14 -465 -156 -118 -44 -248 -90 -288 -102
-140 -45 -168 -115 -91 -229 71 -108 179 -171 323 -192 116 -16 215 0 512 85
37 10 73 15 89 11 15 -4 75 -50 133 -104 153 -139 769 -702 876 -800 123 -113
128 -116 261 -115 238 0 432 65 577 193 77 67 82 43 -77 430 -131 320 -343
737 -413 813 -32 34 -55 34 -163 3 -245 -70 -381 -106 -403 -106 -22 0 -219
71 -641 233 -106 40 -149 47 -230 36z"/>
<path d="M16495 15703 c-37 -10 -88 -52 -171 -143 -90 -99 -110 -139 -100
-206 9 -67 36 -111 209 -344 340 -456 560 -714 642 -751 87 -40 157 -16 256
87 165 172 189 209 189 291 -1 92 -67 180 -152 204 -36 9 -68 32 -68 48 0 5 7
25 15 44 21 52 18 104 -9 163 -27 59 -73 97 -142 121 -73 24 -77 29 -71 89 12
112 -35 198 -131 242 -46 21 -62 23 -118 17 -61 -6 -65 -5 -90 22 -15 15 -33
38 -41 50 -34 51 -145 84 -218 66z"/>
<path d="M18131 15594 c-12 -15 -21 -32 -21 -38 0 -31 52 -93 235 -278 109
-112 286 -291 392 -399 188 -190 193 -196 193 -236 0 -75 -102 -172 -182 -173
-24 0 -93 48 -119 83 -31 42 -670 672 -688 679 -53 20 -99 -50 -69 -105 7 -13
164 -178 348 -366 184 -188 339 -353 345 -367 20 -54 -70 -146 -158 -161 -89
-14 -91 -13 -388 284 -244 242 -280 274 -304 271 -39 -4 -68 -46 -59 -84 5
-19 67 -90 184 -209 98 -99 183 -190 189 -202 26 -52 -45 -114 -138 -121 -75
-5 -115 15 -201 103 -104 107 -130 113 -185 41 -43 -57 -36 -78 63 -176 50
-50 110 -100 142 -116 51 -27 63 -29 165 -29 102 0 114 2 165 29 30 16 66 37
79 47 31 24 63 24 131 -2 44 -17 72 -20 140 -17 122 4 194 41 292 149 57 63
81 81 113 89 127 32 227 111 289 230 39 74 47 82 130 131 32 19 76 54 97 78
101 114 138 313 63 341 -36 14 -110 12 -121 -2 -6 -7 -13 -38 -16 -69 -11
-114 -91 -209 -177 -209 -27 0 -78 49 -443 415 -445 449 -441 446 -486 389z"/>
<path d="M26685 12454 c-88 -55 -101 -71 -115 -141 -10 -47 -9 -70 5 -142 13
-63 17 -132 17 -256 -1 -142 2 -181 18 -234 24 -75 25 -115 6 -169 -12 -34
-13 -70 -5 -214 6 -95 10 -195 10 -223 0 -67 -18 -367 -27 -432 -5 -38 -2 -60
10 -84 20 -41 20 -60 -1 -118 -15 -45 -15 -50 0 -89 14 -35 15 -54 7 -110 -13
-94 -30 -430 -23 -472 7 -45 20 -60 50 -60 24 0 171 66 207 93 27 20 38 174
25 337 -9 106 -14 130 -35 161 -22 32 -24 44 -19 90 4 30 13 74 21 99 19 61 6
489 -16 515 -19 22 -22 207 -5 250 19 45 31 491 15 539 -10 32 -9 43 9 86 25
58 26 81 5 121 -14 27 -14 35 0 84 28 93 17 363 -16 403 -20 23 -72 11 -143
-34z"/>
<path d="M8931 11791 c-89 -94 -167 -184 -180 -208 -14 -27 1 -73 25 -73 9 0
46 22 83 48 36 27 98 70 136 97 80 54 95 70 95 102 0 29 -56 93 -83 93 -12 0
-43 -24 -76 -59z"/>
<path d="M28825 11830 c-12 -4 -38 -30 -60 -56 -21 -27 -72 -81 -112 -120 -58
-57 -73 -77 -73 -100 0 -33 16 -54 39 -54 18 0 141 82 201 135 25 22 61 52 80
66 28 21 34 32 34 64 0 59 -50 90 -109 65z"/>
<path d="M5650 11693 c-31 -32 -68 -66 -83 -76 -21 -14 -27 -26 -27 -52 0 -49
-16 -84 -45 -97 -25 -11 -38 -41 -51 -113 -4 -21 -19 -60 -34 -86 -15 -25 -31
-57 -35 -70 -15 -51 -96 -247 -129 -312 -19 -38 -37 -83 -41 -100 -9 -45 -53
-134 -90 -182 -35 -46 -73 -115 -215 -397 -21 -42 -44 -79 -49 -83 -6 -3 -16
-26 -22 -51 -7 -28 -21 -51 -35 -61 -35 -22 -174 -235 -174 -265 0 -14 6 -30
13 -35 21 -17 76 -23 105 -12 31 12 92 67 92 84 0 15 188 387 228 451 18 28
32 56 32 62 0 6 14 21 31 33 34 24 87 29 464 44 83 3 185 12 229 20 104 20
155 19 255 -5 l84 -20 34 20 c19 11 38 20 43 20 5 0 19 -24 33 -52 13 -29 36
-71 50 -92 15 -21 27 -46 27 -55 0 -9 13 -41 29 -71 37 -67 42 -79 76 -160 16
-36 41 -84 57 -107 16 -24 33 -67 39 -100 13 -70 31 -93 75 -93 29 0 41 10 95
71 55 65 61 75 56 106 -5 31 -61 129 -109 193 -10 14 -35 50 -55 80 -19 30
-51 70 -69 89 -24 24 -34 42 -34 65 0 17 -9 47 -20 66 -10 19 -29 55 -41 80
-12 25 -45 85 -73 133 -75 129 -123 217 -141 257 -36 78 -70 137 -102 173 -25
28 -33 46 -33 74 0 26 -13 57 -45 109 -25 39 -45 78 -45 85 0 8 -7 23 -15 33
-8 11 -15 34 -15 50 0 17 -9 45 -20 61 -11 17 -20 37 -20 45 0 20 -43 99 -94
176 -23 34 -49 76 -58 93 -27 50 -62 43 -128 -26z m96 -428 c28 -54 68 -113
88 -132 23 -22 36 -43 36 -59 0 -32 43 -125 86 -185 18 -26 40 -61 49 -79 9
-18 34 -50 55 -70 39 -38 61 -92 64 -155 l1 -30 -85 -12 c-47 -6 -116 -16
-155 -22 -92 -14 -600 -14 -626 -1 -26 15 -24 31 15 113 18 40 39 95 45 124 7
28 22 60 33 69 11 10 26 32 34 49 7 16 18 37 23 45 6 8 22 42 36 75 15 33 33
74 41 90 7 17 18 48 24 71 5 22 22 51 36 65 14 13 40 51 56 84 17 33 35 66 41
73 18 23 48 -10 103 -113z"/>
<path d="M18420 11695 c-41 -8 -104 -14 -140 -15 -104 -2 -196 -28 -345 -99
-44 -22 -107 -49 -140 -61 -100 -37 -108 -43 -170 -107 -33 -34 -74 -67 -91
-73 -83 -29 -239 -261 -251 -374 -3 -31 -15 -66 -31 -90 -23 -34 -26 -48 -25
-115 2 -146 12 -219 36 -283 14 -34 28 -74 32 -88 19 -68 87 -154 168 -213 28
-22 37 -35 37 -58 0 -25 16 -45 88 -114 125 -119 178 -159 252 -187 185 -72
286 -96 318 -79 33 18 72 13 103 -13 24 -20 44 -25 124 -31 111 -9 243 1 317
22 29 8 107 18 174 23 75 5 132 13 151 23 16 9 61 23 99 32 109 24 118 30 142
88 49 116 9 158 -97 103 -25 -13 -68 -34 -96 -46 -27 -12 -62 -28 -77 -36 -15
-8 -53 -19 -84 -25 -31 -6 -67 -17 -78 -24 -16 -11 -74 -15 -236 -17 -197 -3
-221 -1 -285 19 -38 12 -90 24 -115 28 -25 3 -63 17 -85 30 -22 13 -56 32 -75
41 -78 37 -118 54 -126 54 -5 0 -28 17 -50 38 -23 20 -57 49 -77 64 -85 66
-277 398 -277 482 -1 23 -7 52 -15 66 -10 17 -14 58 -15 131 0 113 21 224 61
313 23 52 132 174 185 207 19 11 41 34 49 50 12 22 46 44 149 94 74 36 156 72
183 79 26 8 68 22 93 31 39 15 72 17 250 11 l205 -5 79 -41 c113 -57 171 -55
239 8 37 35 37 83 1 111 -15 12 -36 21 -48 21 -11 0 -65 9 -119 20 -114 23
-271 25 -387 5z"/>
<path d="M27576 11576 c-103 -54 -146 -97 -146 -143 0 -12 8 -44 19 -70 14
-36 20 -83 23 -191 5 -167 2 -172 -88 -172 -75 0 -106 -15 -157 -75 -78 -89
-57 -124 59 -104 76 13 153 7 165 -12 5 -8 9 -51 9 -97 0 -56 5 -93 16 -114
13 -25 14 -36 4 -56 -7 -17 -11 -88 -11 -201 1 -97 -2 -235 -5 -307 -8 -156 6
-222 58 -274 52 -51 82 -60 189 -53 52 3 102 10 112 15 20 10 215 81 286 104
61 19 88 47 106 110 21 73 19 92 -9 105 -39 18 -67 4 -152 -72 -86 -77 -115
-94 -184 -103 -33 -5 -54 -2 -79 11 -29 15 -37 29 -57 93 -16 52 -24 99 -24
153 0 52 -6 91 -16 113 -15 32 -15 36 0 53 25 28 23 170 -4 204 -11 14 -20 32
-20 41 0 9 9 33 20 53 14 26 20 57 20 100 0 34 5 74 10 89 l10 26 98 -6 c53
-4 135 -9 182 -12 l85 -6 74 57 c118 89 139 128 96 171 -22 22 -33 25 -63 21
-20 -4 -82 -14 -137 -23 -164 -27 -176 -27 -254 -5 -41 11 -75 22 -76 23 -1 2
-12 24 -24 51 l-23 48 28 67 c28 64 29 72 29 235 0 165 0 169 -24 188 -13 10
-28 19 -35 18 -6 0 -56 -24 -110 -53z"/>
<path d="M32515 11131 c-39 -10 -88 -36 -104 -55 -11 -13 -41 -16 -181 -16
-162 0 -169 -1 -216 -27 -48 -25 -53 -26 -206 -24 -130 2 -169 -1 -230 -17
-40 -11 -89 -23 -109 -26 -68 -12 -148 -65 -292 -196 -53 -48 -87 -104 -87
-143 0 -14 -7 -44 -15 -68 -9 -24 -19 -85 -22 -135 -5 -83 -4 -95 17 -132 13
-22 36 -46 51 -52 15 -7 43 -34 61 -60 21 -31 48 -55 73 -67 50 -22 51 -40 3
-67 -20 -12 -69 -51 -108 -87 l-70 -66 0 -59 c0 -117 53 -177 201 -228 88 -30
111 -32 145 -9 22 14 49 16 169 14 79 -1 160 2 182 8 25 7 98 7 214 2 142 -7
188 -13 240 -32 58 -20 129 -70 129 -91 0 -5 20 -51 45 -102 40 -83 43 -97 34
-127 -5 -19 -14 -65 -19 -104 -8 -67 -11 -72 -58 -115 -121 -109 -220 -169
-285 -170 -10 0 -31 -7 -48 -15 -16 -9 -55 -20 -87 -26 -31 -6 -76 -17 -100
-25 -32 -11 -103 -14 -291 -14 l-249 0 -48 34 c-27 19 -72 50 -101 70 -66 46
-113 105 -113 142 0 76 13 105 71 170 59 65 66 78 50 102 -38 61 -293 -93
-342 -206 -25 -58 -24 -137 2 -205 20 -52 26 -59 127 -125 82 -54 119 -72 157
-77 28 -4 68 -17 90 -28 35 -18 65 -20 256 -24 192 -4 225 -2 301 16 47 11
122 25 167 30 44 6 94 17 110 26 17 8 36 15 43 15 19 0 289 137 302 153 6 8
44 40 83 71 40 31 80 71 89 89 9 18 28 45 41 61 36 43 73 131 88 211 14 74 12
96 -30 255 -20 79 -29 88 -86 98 -34 6 -47 14 -57 35 -16 33 -61 57 -184 98
-81 27 -101 30 -163 25 -38 -3 -77 -6 -85 -6 -8 1 -75 3 -148 6 -121 5 -135 4
-166 -15 -30 -19 -45 -20 -183 -17 -154 4 -174 8 -208 46 -19 21 -19 22 0 56
22 42 63 68 133 84 28 7 54 16 57 20 3 5 28 11 56 15 44 6 53 12 74 45 17 27
34 40 57 45 62 13 158 44 185 61 89 55 117 77 201 164 52 52 109 118 127 145
31 46 34 59 41 152 6 94 5 104 -16 138 -32 53 -23 65 52 65 76 0 107 17 168
89 23 28 51 53 61 56 25 8 69 73 69 102 0 46 -41 62 -115 44z m-677 -290 c60
-31 173 -146 192 -196 18 -46 12 -127 -12 -175 -33 -64 -95 -106 -229 -151
-157 -54 -225 -54 -318 -2 -101 56 -121 72 -121 98 0 13 -11 36 -25 51 -22 24
-25 36 -25 101 0 93 14 124 86 194 79 76 147 97 362 107 19 1 56 -10 90 -27z"/>
<path d="M23787 11064 c-213 -69 -428 -221 -503 -356 -25 -46 -29 -63 -29
-134 0 -72 3 -84 26 -115 44 -58 223 -115 349 -111 36 1 99 3 140 4 98 3 280
-21 302 -40 36 -30 78 -109 78 -144 0 -65 -46 -173 -99 -232 -31 -34 -162 -96
-204 -96 -16 0 -59 -5 -94 -12 -101 -18 -165 2 -291 95 -53 39 -71 66 -91 144
-21 78 -68 79 -153 3 -50 -45 -53 -50 -52 -93 1 -68 38 -115 137 -175 105 -63
201 -95 287 -95 129 1 267 11 286 21 10 5 39 13 63 17 24 4 90 29 147 56 107
50 143 83 193 174 13 23 38 49 59 60 58 31 74 73 69 175 -9 166 -52 254 -148
305 -19 10 -51 27 -71 37 -63 33 -217 47 -355 32 -65 -7 -130 -16 -146 -19
-21 -6 -38 0 -80 28 -28 19 -62 38 -73 41 -12 4 -27 20 -34 36 -16 40 -1 78
51 124 63 57 113 78 213 86 81 6 97 5 158 -16 130 -46 250 -22 334 64 29 30
34 42 32 72 -3 30 -8 37 -38 47 -22 8 -62 11 -110 7 -59 -4 -88 -1 -139 15
-81 27 -118 26 -214 -5z"/>
<path d="M10190 11068 c-19 -5 -75 -13 -125 -18 -56 -6 -105 -17 -130 -30 -21
-11 -45 -20 -53 -20 -8 0 -30 -7 -50 -16 -98 -44 -120 -53 -155 -64 -48 -15
-73 -57 -56 -94 9 -18 29 -31 73 -46 107 -38 107 -38 170 19 31 28 84 65 118
82 35 17 75 40 91 51 23 17 38 19 110 13 119 -9 211 -34 241 -64 13 -14 47
-49 76 -77 l51 -51 3 -87 c3 -99 -3 -111 -62 -122 -20 -3 -55 -10 -77 -15 -22
-5 -94 -14 -160 -19 -114 -9 -232 -37 -262 -62 -7 -6 -34 -14 -59 -19 -25 -5
-58 -19 -73 -31 -14 -13 -47 -31 -71 -41 -82 -34 -105 -47 -170 -100 -54 -44
-72 -67 -108 -137 -34 -69 -41 -93 -38 -125 8 -75 19 -100 74 -167 43 -52 67
-72 106 -87 72 -29 162 -41 303 -41 124 0 151 5 478 84 109 27 108 27 119 -19
6 -22 15 -43 21 -47 27 -20 111 2 212 55 60 31 78 80 51 144 -7 18 -12 103
-13 238 -1 116 -4 274 -7 352 -5 125 -8 146 -29 179 -17 29 -23 53 -23 104 -1
59 -5 71 -31 103 -20 24 -45 41 -73 49 -30 9 -48 22 -62 45 -14 24 -31 36 -71
47 -29 9 -67 16 -84 16 -18 0 -45 4 -61 9 -43 14 -154 19 -194 9z m253 -697
c59 -4 113 -13 120 -20 12 -12 24 -253 13 -294 -7 -28 -86 -111 -141 -149 -28
-20 -53 -28 -82 -28 -25 0 -60 -10 -89 -25 -35 -19 -62 -25 -108 -25 -34 0
-83 -8 -109 -17 -47 -17 -50 -17 -80 1 -18 10 -71 39 -119 63 -83 43 -88 47
-88 77 0 18 -7 55 -15 82 -23 77 -20 88 45 152 45 45 87 73 172 115 65 32 134
58 163 63 28 4 59 11 70 15 11 5 47 7 80 4 33 -3 109 -9 168 -14z"/>
<path d="M11975 11065 c-22 -8 -58 -14 -81 -14 -36 -1 -73 -16 -174 -70 -61
-32 -109 -51 -132 -51 -25 0 -27 4 -33 55 -12 96 -57 108 -172 44 -105 -58
-112 -76 -88 -211 10 -62 19 -164 20 -256 3 -144 4 -155 26 -178 l22 -24 -21
-47 c-33 -76 -34 -88 -17 -189 12 -72 14 -104 6 -126 -6 -17 -11 -62 -11 -99
0 -37 -5 -80 -10 -95 -6 -15 -8 -35 -5 -45 11 -33 48 -32 146 3 l94 33 3 290
c2 253 1 295 -14 327 -11 24 -14 47 -10 65 4 15 11 70 15 121 8 104 19 125 94
182 34 26 74 43 154 64 59 16 119 29 133 29 63 -1 148 -18 180 -35 55 -29 82
-23 142 27 69 60 84 87 67 127 -20 49 -35 58 -102 58 -35 1 -73 7 -87 15 -31
17 -91 17 -145 0z"/>
<path d="M13105 11068 c-22 -5 -79 -12 -126 -17 -49 -4 -97 -14 -111 -23 -13
-8 -38 -19 -57 -23 -34 -7 -107 -36 -151 -59 -14 -7 -42 -19 -62 -25 -50 -16
-74 -53 -58 -91 9 -21 25 -33 73 -49 106 -38 106 -38 163 16 27 27 68 57 90
67 21 10 65 34 97 52 57 33 60 34 145 28 48 -3 115 -14 150 -24 57 -17 71 -27
138 -96 l74 -78 0 -87 c0 -57 -4 -90 -12 -97 -20 -15 -217 -52 -283 -52 -77 0
-183 -23 -249 -53 -28 -13 -68 -27 -88 -31 -20 -3 -42 -13 -49 -22 -15 -18
-58 -41 -117 -63 -23 -9 -78 -45 -121 -81 -79 -65 -105 -104 -150 -223 -20
-51 13 -142 76 -215 31 -34 72 -70 92 -78 61 -26 180 -43 307 -44 103 0 140 5
260 34 76 18 158 36 182 40 23 3 61 13 84 21 49 17 68 7 68 -34 0 -15 5 -32
12 -39 16 -16 70 -15 110 2 18 8 53 22 77 32 96 40 116 82 83 176 -15 42 -18
67 -12 104 4 27 5 114 3 194 -2 80 -3 172 -3 205 1 118 -16 231 -39 263 -16
23 -21 45 -21 94 0 61 -2 67 -37 106 -25 27 -50 44 -72 48 -23 5 -39 17 -53
40 -20 35 -52 49 -128 59 -25 3 -63 10 -85 15 -62 14 -156 17 -200 8z m258
-697 c59 -4 110 -11 114 -14 12 -13 22 -102 22 -205 l1 -103 -52 -56 c-72 -76
-131 -113 -182 -113 -24 0 -55 -9 -76 -22 -26 -15 -56 -22 -115 -26 -44 -2
-92 -11 -107 -18 -37 -19 -65 -17 -98 6 -16 12 -55 32 -87 47 -95 43 -113 59
-113 101 0 20 -7 59 -15 86 -8 27 -15 53 -15 59 0 18 135 142 175 161 22 10
67 32 100 49 80 39 204 67 280 61 33 -2 108 -8 168 -13z"/>
<path d="M7200 11036 c-123 -77 -137 -103 -98 -177 22 -42 23 -53 20 -205 -3
-129 -1 -167 11 -191 10 -18 12 -34 6 -44 -4 -9 -11 -167 -14 -351 -7 -395
-12 -378 88 -331 34 17 77 36 95 43 19 7 37 23 41 34 4 12 3 75 -2 141 -5 66
-8 134 -7 150 1 17 2 148 1 293 -1 220 1 268 14 296 22 46 158 120 240 131 33
4 75 13 92 20 21 9 79 15 155 16 113 1 127 -1 171 -23 58 -30 101 -96 111
-174 3 -28 6 -174 7 -325 0 -227 2 -278 15 -297 14 -21 13 -31 -5 -104 -38
-148 -22 -232 41 -213 60 19 169 77 181 97 20 32 22 275 3 343 -19 66 -23 228
-12 456 7 159 6 195 -8 240 -18 62 -87 149 -117 149 -11 0 -36 8 -57 19 -55
27 -91 32 -269 36 -125 3 -173 1 -204 -10 -25 -9 -56 -12 -79 -9 -46 8 -79 -9
-166 -82 -36 -31 -71 -53 -79 -50 -8 2 -16 26 -20 53 -13 110 -58 130 -155 69z"/>
<path d="M8960 11039 c-181 -102 -203 -131 -166 -220 7 -19 17 -74 20 -124 5
-63 15 -106 32 -144 29 -65 30 -86 4 -151 -26 -66 -25 -89 5 -130 14 -19 25
-35 25 -35 0 -1 -9 -12 -20 -25 -17 -20 -20 -37 -20 -130 0 -103 1 -109 30
-148 35 -49 38 -72 10 -97 -18 -16 -20 -31 -20 -122 0 -77 4 -110 16 -128 13
-19 13 -28 3 -47 -16 -29 -32 -374 -18 -399 13 -25 11 -61 -5 -100 -7 -19 -16
-81 -20 -139 -15 -229 -19 -246 -82 -380 -33 -69 -71 -143 -86 -165 -46 -71
-119 -132 -217 -181 l-94 -47 -102 1 c-82 0 -113 4 -150 21 -26 12 -55 21 -65
21 -10 0 -34 7 -55 16 -49 20 -87 15 -101 -15 -20 -40 6 -84 87 -144 33 -24
44 -27 123 -27 60 0 97 5 118 16 17 9 67 20 112 24 100 11 182 33 210 58 11
10 37 28 56 40 53 31 170 157 224 240 26 40 60 87 75 105 16 17 40 57 54 87
49 105 103 316 95 371 -3 21 1 47 13 69 30 58 42 158 35 298 -3 70 -5 136 -5
147 0 11 0 258 0 548 0 457 -2 531 -16 550 -18 25 -20 74 -4 114 17 42 28 187
22 286 -6 84 -7 89 -34 103 -15 7 -29 14 -31 14 -2 0 -28 -14 -58 -31z"/>
<path d="M20285 11059 c-44 -5 -102 -17 -130 -27 -144 -54 -188 -74 -227 -104
-24 -18 -70 -47 -102 -63 -33 -17 -72 -47 -90 -69 -17 -22 -52 -60 -78 -85
-55 -54 -89 -114 -130 -230 -27 -78 -29 -92 -24 -180 3 -53 6 -124 5 -158 0
-71 18 -114 87 -206 67 -90 196 -187 249 -187 9 0 35 -10 58 -22 37 -20 61
-22 214 -26 132 -3 188 -1 240 11 38 9 99 18 137 21 38 3 87 14 110 25 22 11
93 44 157 74 111 52 118 58 174 128 32 41 79 117 104 169 46 95 46 95 47 205
0 61 6 126 13 146 21 64 -11 250 -55 317 -8 13 -35 32 -58 42 -24 10 -59 37
-77 59 -74 90 -231 163 -285 133 -14 -8 -30 -4 -66 14 -52 26 -117 29 -273 13z
m236 -134 c19 -13 54 -35 79 -49 25 -13 83 -65 128 -115 83 -90 84 -93 110
-189 26 -96 27 -117 20 -299 -3 -72 -6 -85 -29 -110 -15 -15 -41 -58 -58 -94
-34 -71 -48 -88 -97 -112 -17 -9 -57 -38 -88 -65 -54 -46 -62 -49 -146 -61
-49 -8 -101 -10 -116 -7 -15 4 -68 11 -118 15 -86 8 -96 11 -187 65 -53 31
-103 56 -112 56 -30 0 -47 12 -47 33 0 12 -20 62 -44 112 -24 49 -49 115 -56
145 -6 30 -15 74 -20 97 -8 35 -6 50 9 80 33 66 68 146 86 196 14 40 35 63
130 145 166 142 254 180 421 181 92 1 104 -1 135 -24z"/>
<path d="M21621 11038 c-72 -43 -121 -91 -121 -117 0 -12 10 -41 22 -64 20
-39 22 -54 19 -199 -2 -127 1 -164 14 -191 11 -25 13 -41 6 -59 -11 -30 -18
-658 -8 -675 12 -19 40 -16 89 8 145 69 133 58 132 114 -2 109 -3 317 -3 440
1 72 1 184 0 249 -1 158 6 172 113 230 58 31 100 46 142 51 32 4 74 13 91 21
20 8 81 14 150 15 110 2 121 0 169 -24 104 -54 125 -147 118 -540 -3 -215 -2
-230 16 -255 20 -27 20 -27 0 -86 -26 -74 -37 -175 -21 -204 21 -39 52 -37
147 7 48 23 93 49 100 59 16 21 19 298 4 351 -10 38 -13 207 -8 501 l3 185
-29 52 c-16 29 -38 61 -50 72 -29 26 -156 68 -241 80 -101 13 -291 11 -353 -5
-29 -7 -66 -11 -81 -8 -37 8 -81 -14 -158 -77 -37 -30 -69 -49 -78 -46 -8 4
-17 26 -21 56 -13 96 -68 116 -163 59z"/>
<path d="M25895 11049 c-38 -12 -70 -30 -88 -50 -29 -31 -29 -32 -22 -128 3
-53 10 -130 14 -171 9 -92 6 -503 -4 -551 -8 -36 -107 -157 -177 -215 -34 -29
-45 -33 -76 -28 -22 3 -55 -1 -81 -10 -69 -25 -193 -21 -286 9 -43 14 -86 30
-97 36 -36 19 -58 70 -58 134 0 33 -5 77 -10 97 -8 28 -7 64 6 145 19 121 20
162 9 246 -5 36 -4 78 3 110 6 29 14 118 17 199 5 141 4 149 -16 169 -18 18
-29 21 -73 16 -51 -5 -180 -59 -193 -80 -11 -17 -3 -319 9 -341 14 -25 17
-380 4 -433 -7 -30 -6 -65 3 -125 7 -46 16 -108 20 -139 11 -70 47 -125 108
-164 38 -24 56 -29 102 -28 36 1 70 -5 96 -16 62 -29 189 -34 277 -12 40 10
92 22 115 25 24 3 95 31 160 62 64 30 123 53 132 52 15 -3 24 -24 36 -80 3
-15 16 -35 30 -44 23 -15 29 -14 92 10 106 40 133 60 133 96 0 17 -8 47 -19
68 -10 20 -21 65 -24 100 -4 35 -11 71 -17 82 -6 11 -7 64 -3 139 5 104 4 127
-12 161 -16 36 -16 42 -2 72 19 40 34 219 36 414 1 129 0 143 -20 167 -24 31
-41 32 -124 6z"/>
<path d="M28740 11055 c-95 -35 -190 -112 -190 -155 1 -14 7 -36 15 -50 8 -14
15 -53 15 -90 0 -36 6 -82 13 -102 9 -25 12 -81 10 -174 -2 -119 0 -143 17
-182 26 -57 25 -96 -1 -138 -17 -28 -22 -60 -30 -182 -5 -81 -12 -168 -15
-193 -6 -51 8 -71 52 -71 27 0 115 56 172 109 l35 33 -8 132 c-4 73 -6 169 -4
213 3 82 3 401 -1 490 -2 46 8 157 25 280 6 42 4 53 -11 66 -28 25 -55 29 -94
14z"/>
<path d="M29409 11026 c-53 -31 -81 -55 -92 -77 -16 -33 -15 -35 17 -111 12
-29 16 -74 16 -201 0 -90 4 -167 9 -173 6 -5 5 -77 0 -179 -5 -93 -7 -183 -5
-200 3 -16 1 -95 -4 -175 -7 -121 -6 -149 6 -167 15 -23 58 -32 68 -14 4 5 38
22 77 37 47 18 74 35 78 48 4 12 4 75 -1 141 -12 153 -12 151 3 274 10 80 10
118 1 172 -14 83 -6 274 14 305 7 12 46 41 86 64 55 32 94 45 157 57 47 8 92
18 101 23 10 5 71 10 137 11 115 2 122 1 174 -27 42 -22 60 -40 80 -78 36 -66
39 -102 40 -413 0 -167 4 -280 11 -299 9 -24 6 -55 -10 -144 -19 -102 -20
-115 -6 -142 8 -16 20 -31 27 -34 26 -9 195 72 213 103 17 29 16 283 -1 333
-15 43 -18 138 -13 510 3 191 2 196 -21 235 -35 59 -82 105 -106 105 -11 0
-36 8 -56 19 -68 37 -297 47 -529 24 -93 -9 -132 -27 -207 -95 -62 -55 -83
-49 -83 26 0 19 -9 45 -21 60 -30 39 -70 34 -160 -18z"/>
<path d="M16024 10526 c-36 -25 -175 -54 -214 -44 -19 5 -92 13 -162 18 -110
9 -133 8 -168 -6 -39 -16 -42 -16 -99 10 -58 26 -59 26 -147 13 -104 -16 -156
-42 -239 -121 -40 -38 -55 -59 -55 -79 0 -38 28 -50 76 -33 22 8 74 22 117 32
73 17 81 17 150 1 68 -15 221 -30 352 -32 33 -1 87 -5 121 -9 73 -9 99 0 196
68 103 72 151 137 134 181 -7 19 -35 19 -62 1z"/>
<path d="M18165 7903 c-12 -11 -14 -23 -8 -47 4 -17 8 -65 8 -106 l0 -75 -50
-8 c-27 -5 -57 -13 -65 -18 -8 -5 -30 -16 -47 -24 -18 -9 -33 -20 -33 -25 0
-6 -10 -20 -22 -32 -16 -16 -23 -37 -26 -78 -4 -51 -1 -60 21 -83 32 -31 71
-40 114 -28 18 5 57 7 86 4 38 -4 55 -2 62 8 6 9 9 114 7 266 -3 205 -6 252
-17 257 -8 3 -22 -2 -30 -11z m-23 -314 c25 -18 28 -26 28 -75 0 -66 -12 -91
-48 -105 -60 -23 -162 37 -162 96 0 40 11 56 59 87 51 32 74 31 123 -3z"/>
<path d="M26715 7901 c-61 -28 -72 -46 -79 -135 -4 -52 -13 -91 -26 -113 -25
-43 -25 -55 0 -78 17 -15 20 -31 20 -102 0 -66 3 -83 15 -83 23 0 35 34 35
103 0 70 6 81 57 92 18 3 36 11 39 17 8 13 -14 28 -43 28 -38 0 -60 32 -68 99
-6 53 -4 68 17 109 21 43 26 47 61 48 43 1 58 11 37 24 -19 12 -18 13 -65 -9z"/>
<path d="M10678 7876 c-2 -19 0 -79 4 -133 9 -114 9 -97 2 -240 -6 -110 -5
-113 15 -113 25 0 23 -10 26 120 2 60 -2 110 -7 118 -6 7 -8 30 -4 55 17 105
26 193 20 209 -3 11 -15 18 -29 18 -19 0 -24 -6 -27 -34z"/>
<path d="M23424 7895 c-8 -21 5 -177 16 -195 5 -8 12 -11 17 -6 12 11 21 168
12 194 -10 25 -37 29 -45 7z"/>
<path d="M10550 7769 c0 -24 23 -21 28 4 2 10 -3 17 -12 17 -10 0 -16 -9 -16
-21z"/>
<path d="M11885 7770 c3 -5 8 -10 11 -10 2 0 4 5 4 10 0 6 -5 10 -11 10 -5 0
-7 -4 -4 -10z"/>
<path d="M13420 7770 c0 -5 4 -10 9 -10 6 0 13 5 16 10 3 6 -1 10 -9 10 -9 0
-16 -4 -16 -10z"/>
<path d="M14170 7770 c0 -5 5 -10 10 -10 6 0 10 5 10 10 0 6 -4 10 -10 10 -5
0 -10 -4 -10 -10z"/>
<path d="M18347 7773 c-15 -14 -4 -83 13 -83 12 0 22 49 15 71 -7 20 -17 24
-28 12z"/>
<path d="M20470 7769 c0 -5 5 -7 10 -4 6 3 10 8 10 11 0 2 -4 4 -10 4 -5 0
-10 -5 -10 -11z"/>
<path d="M8958 7763 c7 -3 16 -2 19 1 4 3 -2 6 -13 5 -11 0 -14 -3 -6 -6z"/>
<path d="M12842 7758 c-17 -17 -15 -58 3 -58 18 0 37 34 29 54 -7 19 -16 20
-32 4z"/>
<path d="M21971 7761 c-12 -8 -13 -34 -8 -143 4 -79 2 -151 -4 -178 -9 -38 -8
-46 6 -57 10 -6 22 -10 28 -8 7 2 25 6 41 10 l30 6 -30 24 -29 23 3 127 c1 84
7 138 17 162 8 19 15 37 15 39 0 8 -55 3 -69 -5z"/>
<path d="M19416 7744 c-18 -17 -21 -34 -7 -34 20 0 41 13 41 25 0 22 -17 26
-34 9z"/>
<path d="M15266 7735 c-9 -25 -7 -91 4 -120 8 -21 13 -25 23 -16 10 8 22 2 50
-23 20 -19 37 -39 37 -45 0 -7 9 -29 20 -49 10 -20 22 -49 25 -64 4 -23 11
-28 36 -28 26 0 32 6 50 47 11 25 18 54 15 62 -3 12 -6 11 -11 -6 -13 -40 -95
-22 -95 20 0 7 -9 29 -20 50 -11 20 -20 45 -21 54 0 10 -12 43 -27 73 -22 43
-33 56 -53 58 -17 2 -29 -3 -33 -13z"/>
<path d="M15611 7731 c-11 -11 -23 -37 -27 -57 -4 -20 -13 -49 -20 -63 -16
-31 -18 -61 -4 -61 6 0 15 11 20 24 25 68 50 26 50 -86 0 -93 10 -123 33 -98
10 12 12 51 7 185 -4 149 -7 170 -22 173 -9 2 -26 -6 -37 -17z"/>
<path d="M20223 7737 c-14 -21 -29 -124 -22 -143 4 -11 8 -44 9 -74 2 -98 12
-132 41 -142 27 -9 79 4 79 21 0 5 -13 14 -29 21 -26 10 -31 18 -36 65 -10 74
-5 88 39 108 l39 19 -31 24 c-19 15 -36 40 -42 64 -11 40 -34 58 -47 37z"/>
<path d="M22116 7741 c-9 -15 16 -28 67 -35 69 -10 112 -51 111 -104 -1 -22
-12 -58 -28 -84 -30 -51 -31 -58 -12 -58 23 0 66 40 86 81 38 73 18 148 -44
169 -19 6 -40 18 -46 26 -14 16 -125 20 -134 5z"/>
<path d="M22604 7736 c-8 -22 3 -33 18 -18 9 9 9 15 0 24 -9 9 -13 7 -18 -6z"/>
<path d="M16534 7723 c-3 -10 -13 -35 -21 -55 -10 -24 -13 -48 -8 -70 3 -18
10 -70 13 -116 8 -96 24 -117 77 -106 55 12 61 27 16 42 -26 9 -29 15 -35 73
-8 68 -2 79 59 115 22 12 12 34 -16 34 -18 0 -36 28 -53 83 -3 9 -10 17 -16
17 -6 0 -13 -8 -16 -17z"/>
<path d="M26226 7728 c-2 -7 -11 -36 -20 -65 -16 -48 -16 -53 0 -85 12 -23 17
-54 16 -105 -2 -67 0 -74 23 -89 18 -12 31 -14 52 -7 36 12 39 27 8 41 -30 14
-45 48 -45 102 0 32 6 44 30 62 34 25 36 34 14 59 -9 10 -22 35 -29 56 -13 38
-42 56 -49 31z"/>
<path d="M8698 7656 c-16 -24 -28 -58 -28 -75 0 -40 41 -120 74 -146 14 -11
36 -28 48 -38 15 -12 35 -17 65 -15 54 4 56 20 4 33 -52 13 -88 48 -117 114
-27 61 -31 113 -9 131 8 7 15 19 15 26 0 27 -25 13 -52 -30z"/>
<path d="M12801 7661 c-12 -16 -32 -32 -45 -35 -13 -3 -38 -25 -55 -48 -51
-69 -37 -153 32 -189 27 -15 157 -12 176 4 11 10 0 13 -59 18 -65 5 -76 9 -96
35 -13 16 -24 41 -24 55 0 33 18 39 121 39 92 0 109 12 84 59 -14 29 -87 91
-106 91 -4 0 -17 -13 -28 -29z m24 -51 c3 -5 1 -10 -4 -10 -6 0 -11 5 -11 10
0 6 2 10 4 10 3 0 8 -4 11 -10z"/>
<path d="M19377 7657 c-8 -13 -28 -27 -44 -30 -43 -9 -76 -61 -81 -129 -4 -54
-3 -59 29 -88 33 -30 36 -31 109 -26 41 3 81 5 88 6 6 0 12 5 12 11 0 8 -15
10 -44 7 -52 -6 -95 10 -124 47 -25 31 -28 60 -9 72 6 4 53 10 102 13 l90 5 3
30 c2 23 -5 38 -30 62 -46 44 -80 51 -101 20z m28 -47 c3 -5 -1 -10 -9 -10 -9
0 -16 5 -16 10 0 6 4 10 9 10 6 0 13 -4 16 -10z"/>
<path d="M22566 7664 c-9 -8 -16 -19 -16 -23 0 -5 -15 -12 -32 -17 -42 -12
-92 -84 -91 -131 1 -38 23 -76 57 -98 19 -13 40 -14 105 -9 44 4 81 11 81 17
0 6 -15 7 -37 4 -56 -9 -110 10 -133 48 -41 67 -20 85 102 85 85 0 108 8 108
40 0 27 -87 100 -119 100 -5 0 -17 -7 -25 -16z m34 -54 c0 -5 -9 -10 -20 -10
-11 0 -20 5 -20 10 0 6 9 10 20 10 11 0 20 -4 20 -10z"/>
<path d="M9335 7663 c-52 -10 -65 -14 -65 -23 0 -6 16 -10 35 -10 24 0 45 -9
70 -31 31 -28 35 -36 35 -80 0 -57 -21 -96 -58 -110 -18 -7 -22 -13 -15 -20
16 -16 44 -4 86 35 36 32 37 36 37 100 0 60 -3 70 -27 92 -37 34 -73 51 -98
47z"/>
<path d="M9636 7656 c-15 -9 -38 -13 -51 -10 -39 10 -49 -24 -41 -145 8 -115
11 -127 32 -110 10 8 14 35 14 95 l0 84 39 26 c43 28 67 27 97 -7 14 -16 20
-42 24 -112 4 -73 8 -92 20 -92 12 0 16 21 18 115 2 112 2 117 -22 139 -31 29
-92 37 -130 17z"/>
<path d="M9978 7659 c-10 -5 -18 -17 -18 -24 0 -11 14 -15 54 -15 58 0 76 11
56 35 -14 17 -67 19 -92 4z"/>
<path d="M10324 7660 c-12 -5 -25 -13 -28 -19 -3 -5 -20 -12 -36 -16 -43 -9
-90 -80 -90 -135 0 -34 6 -48 34 -76 35 -35 44 -36 199 -25 4 1 7 5 7 11 0 5
-23 9 -53 7 -63 -2 -94 14 -122 67 -20 37 -20 38 -1 52 13 9 46 14 97 14 43 0
84 3 93 6 32 12 10 72 -40 105 -33 21 -31 21 -60 9z m11 -50 c3 -5 -3 -10 -14
-10 -12 0 -21 5 -21 10 0 6 6 10 14 10 8 0 18 -4 21 -10z"/>
<path d="M11122 7659 c-12 -5 -22 -13 -22 -19 0 -5 -9 -10 -20 -10 -28 0 -75
-48 -94 -97 -13 -36 -14 -46 -2 -75 8 -18 25 -43 38 -55 21 -20 32 -22 103
-19 100 5 95 3 95 20 0 11 -8 12 -37 5 -49 -11 -109 5 -127 34 -46 73 -25 97
84 97 43 0 85 3 94 6 23 9 20 38 -9 72 -30 36 -72 52 -103 41z m22 -48 c7 -11
-14 -20 -31 -13 -7 2 -13 8 -13 13 0 12 37 12 44 0z"/>
<path d="M11460 7660 c-14 -4 -42 -8 -62 -9 -50 -1 -58 -19 -58 -138 0 -103 8
-130 34 -120 13 5 16 22 16 85 0 75 1 79 33 110 38 37 65 40 98 13 22 -18 24
-27 25 -110 0 -52 5 -96 11 -102 25 -25 33 4 33 115 0 94 -3 118 -17 135 -20
24 -75 34 -113 21z"/>
<path d="M12095 7655 c-16 -9 -38 -14 -49 -11 -39 10 -46 -10 -46 -129 0 -82
4 -116 13 -124 20 -16 27 -4 28 48 1 100 12 134 48 158 42 29 53 29 86 1 23
-21 26 -33 33 -118 5 -75 10 -95 22 -95 12 0 16 20 18 112 2 103 1 113 -20
138 -29 34 -90 43 -133 20z"/>
<path d="M12575 7663 c-30 -6 -75 -25 -75 -31 0 -2 9 -20 21 -38 11 -19 19
-46 17 -61 -3 -26 -7 -28 -48 -31 -25 -1 -51 2 -59 7 -15 10 -18 53 -6 89 6
18 4 22 -13 22 -31 0 -66 -83 -52 -123 5 -17 10 -49 10 -73 0 -50 21 -76 59
-72 20 2 26 9 27 28 1 46 15 71 42 76 40 8 77 45 101 100 12 27 31 59 42 71
l21 21 -20 11 c-21 11 -32 12 -67 4z"/>
<path d="M13133 7655 c-17 -7 -41 -11 -53 -8 -33 9 -40 -12 -40 -122 0 -111 6
-145 25 -145 19 0 25 24 25 105 0 64 3 77 23 96 36 34 66 42 94 24 33 -22 43
-54 43 -140 0 -74 11 -98 33 -76 8 8 11 48 9 119 -3 104 -3 108 -32 135 -34
31 -75 35 -127 12z"/>
<path d="M13665 7659 c-79 -37 -101 -56 -127 -108 -25 -51 -26 -57 -12 -90 26
-66 53 -80 144 -79 55 1 84 5 91 15 17 20 8 23 -39 12 -32 -7 -51 -6 -79 6
-45 19 -62 41 -63 82 0 39 8 42 125 45 77 3 80 4 83 28 2 18 -7 34 -30 57 -38
36 -65 45 -93 32z m20 -49 c3 -5 -3 -10 -14 -10 -12 0 -21 5 -21 10 0 6 6 10
14 10 8 0 18 -4 21 -10z"/>
<path d="M13984 7660 c-12 -5 -25 -14 -29 -20 -5 -8 -13 -7 -29 4 -44 28 -51
9 -48 -126 2 -68 7 -127 12 -132 20 -20 30 9 30 89 0 76 2 86 26 115 21 25 32
30 53 25 16 -3 34 0 46 10 20 15 20 15 1 30 -22 17 -32 18 -62 5z"/>
<path d="M14385 7645 c-28 -13 -55 -25 -61 -25 -6 0 -23 -19 -39 -42 -42 -63
-41 -116 4 -162 l34 -35 81 3 c53 3 82 8 84 16 4 10 -6 11 -36 6 -50 -7 -90 7
-119 42 -26 32 -30 77 -7 86 9 3 53 6 99 6 101 0 118 12 88 62 -10 18 -32 40
-49 50 -29 17 -31 17 -79 -7z m30 -35 c3 -5 -1 -10 -9 -10 -8 0 -18 5 -21 10
-3 6 1 10 9 10 8 0 18 -4 21 -10z"/>
<path d="M16265 7660 c-11 -5 -34 -9 -52 -9 -17 -1 -35 -6 -39 -13 -8 -13 -6
-227 2 -240 3 -5 12 -4 20 3 10 8 14 34 14 85 0 80 13 104 65 124 33 13 47 6
81 -40 16 -22 32 -40 35 -40 4 0 9 16 11 35 9 76 -64 126 -137 95z"/>
<path d="M16854 7659 c-17 -5 -37 -16 -44 -24 -7 -8 -19 -15 -26 -15 -8 0 -14
-4 -14 -10 0 -15 17 -12 45 6 35 23 92 11 107 -22 15 -31 2 -45 -49 -53 -25
-4 -39 -12 -41 -24 -3 -14 4 -17 33 -17 75 0 95 -33 49 -81 l-27 -28 25 -6
c14 -4 39 -5 54 -3 29 3 29 4 32 73 2 39 1 88 -3 110 -11 78 -69 116 -141 94z"/>
<path d="M17292 7661 c-61 -10 -69 -22 -43 -66 19 -32 20 -40 9 -63 -22 -45
-101 -42 -119 5 -7 20 -6 30 6 43 16 18 20 40 6 40 -4 0 -20 -9 -35 -21 -26
-20 -26 -23 -24 -122 3 -101 4 -102 31 -115 35 -17 84 -8 68 12 -18 21 5 73
36 81 31 7 77 56 109 115 13 25 30 53 37 63 10 14 9 19 -3 27 -16 11 -16 11
-78 1z"/>
<path d="M17565 7663 c-11 -3 -27 -11 -35 -18 -8 -7 -25 -16 -38 -20 -40 -12
-72 -72 -72 -135 0 -49 4 -60 28 -83 26 -25 35 -27 103 -26 81 0 109 5 109 20
0 5 -25 9 -56 9 -78 0 -133 35 -134 87 0 32 28 43 109 43 38 0 76 3 85 6 20 8
20 43 0 72 -13 19 -66 55 -76 51 -2 -1 -12 -4 -23 -6z"/>
<path d="M18675 7664 c-5 -1 -22 -5 -37 -8 -41 -9 -34 -23 15 -29 61 -8 97
-51 97 -115 0 -54 -19 -88 -58 -103 -17 -6 -22 -13 -15 -20 12 -12 47 2 88 35
26 23 30 32 33 95 4 69 4 71 -29 100 -32 30 -75 50 -94 45z"/>
<path d="M18965 7658 c-86 -17 -80 4 -82 -267 -3 -256 4 -306 34 -265 12 15
14 40 10 121 -7 117 -3 123 72 123 55 0 78 11 134 63 l48 45 -3 63 c-3 61 -4
64 -44 92 -46 32 -96 40 -169 25z m111 -59 c42 -26 54 -47 54 -95 0 -61 -30
-84 -107 -84 -82 0 -103 18 -103 89 0 97 75 140 156 90z"/>
<path d="M19722 7655 c-18 -8 -45 -12 -60 -9 -23 5 -30 1 -38 -18 -11 -25 -4
-221 9 -234 19 -19 32 21 32 96 0 70 3 81 25 105 20 21 31 25 56 20 39 -7 64
16 44 40 -15 18 -26 18 -68 0z"/>
<path d="M19954 7662 c-32 -11 -80 -50 -71 -58 4 -5 17 -3 27 4 25 15 92 16
108 0 7 -7 12 -22 12 -35 0 -18 -7 -23 -37 -28 -82 -13 -89 -38 -13 -45 51 -5
55 -7 58 -32 2 -18 -5 -34 -23 -51 -28 -26 -27 -30 17 -41 53 -12 58 -3 57
108 0 55 -3 109 -7 118 -17 41 -86 73 -128 60z"/>
<path d="M20755 7665 c-5 -2 -22 -6 -37 -9 -41 -9 -34 -23 13 -29 26 -3 52
-16 70 -33 25 -24 29 -35 29 -83 -1 -62 -13 -85 -55 -101 -20 -8 -25 -14 -18
-21 27 -27 110 38 123 96 15 65 3 111 -39 144 -37 29 -68 42 -86 36z"/>
<path d="M21055 7655 c-22 -8 -48 -12 -57 -9 -32 10 -41 -30 -33 -147 5 -77
11 -109 20 -109 8 0 14 27 19 83 6 71 10 85 34 108 41 40 65 44 99 15 26 -22
28 -31 33 -113 4 -73 8 -88 23 -91 15 -3 17 7 17 107 0 100 -2 112 -22 136
-29 32 -80 40 -133 20z"/>
<path d="M24075 7665 c-5 -2 -31 -6 -58 -10 -70 -9 -81 -30 -64 -127 8 -45 10
-87 5 -104 -8 -29 8 -114 22 -114 4 0 12 11 18 25 6 13 22 26 34 29 13 2 46 8
73 13 34 5 50 13 50 23 0 11 -16 16 -61 20 -81 7 -94 19 -94 87 0 71 27 113
73 113 86 0 176 -124 120 -166 -10 -7 -14 -16 -10 -21 5 -4 22 7 38 25 24 27
29 41 29 83 0 40 -5 55 -25 75 -40 40 -109 63 -150 49z"/>
<path d="M24416 7659 c-27 -4 -58 -16 -68 -27 -17 -17 -18 -24 -9 -58 6 -22
11 -127 11 -241 0 -203 4 -228 35 -203 12 10 14 31 9 109 -8 114 -1 125 85
134 33 4 61 14 75 27 122 115 119 110 86 178 -13 27 -35 50 -63 67 -46 26 -75
29 -161 14z m141 -83 c39 -42 44 -97 14 -133 -16 -19 -29 -23 -76 -23 -68 0
-88 10 -105 49 -13 32 -2 83 28 130 14 20 21 23 61 18 36 -4 52 -13 78 -41z"/>
<path d="M25315 7659 c-16 -5 -41 -7 -54 -3 -14 3 -58 2 -99 -2 -91 -8 -104
-24 -74 -94 l19 -45 14 30 c8 16 26 36 41 45 42 23 60 -1 67 -94 4 -41 10 -78
14 -82 16 -16 31 19 33 77 2 66 19 119 38 119 7 0 22 -10 34 -23 19 -20 22
-35 22 -105 0 -83 12 -110 35 -79 7 10 11 55 10 123 -2 98 -4 109 -25 126 -25
20 -31 21 -75 7z"/>
<path d="M25926 7654 c-78 -21 -80 -26 -70 -145 6 -66 13 -104 22 -107 8 -2
12 9 12 35 2 110 37 173 97 173 47 0 64 -31 70 -130 5 -69 8 -80 24 -80 17 0
19 9 19 95 0 163 -37 196 -174 159z"/>
<path d="M27325 7659 c-16 -4 -43 -11 -58 -14 -39 -8 -43 -29 -33 -144 12
-124 31 -138 38 -27 7 108 43 150 112 132 32 -8 39 -27 45 -121 5 -71 8 -80
26 -80 19 0 20 6 18 94 -2 112 -14 146 -55 160 -35 12 -51 12 -93 0z"/>
<path d="M27695 7663 c-11 -2 -24 -10 -30 -17 -5 -7 -20 -18 -31 -24 -31 -16
-74 -104 -74 -150 0 -29 7 -45 28 -66 28 -25 33 -27 112 -24 56 2 85 7 88 16
3 9 -13 12 -58 12 -56 0 -65 3 -90 30 -83 88 -57 152 69 169 39 5 74 31 61 45
-9 8 -55 14 -75 9z"/>
<path d="M28500 7659 c-14 -4 -41 -7 -61 -8 -57 -2 -63 -16 -56 -137 2 -58 7
-108 10 -111 16 -16 27 16 27 80 1 64 4 76 28 104 20 24 35 32 58 31 33 -1 54
8 54 22 0 16 -34 27 -60 19z"/>
<path d="M15890 7645 c-11 -13 -8 -15 18 -15 54 0 82 -17 102 -62 11 -24 20
-53 20 -65 0 -30 -38 -93 -57 -93 -16 0 -13 -22 4 -27 17 -6 74 48 89 84 8 18
14 51 14 74 0 36 -6 48 -40 81 -36 33 -47 38 -89 38 -31 0 -53 -5 -61 -15z"/>
<path d="M23174 7649 c-3 -6 -22 -17 -41 -25 -48 -21 -73 -66 -73 -136 0 -51
3 -59 31 -82 17 -14 43 -26 57 -26 56 0 132 13 132 23 0 5 -13 7 -29 4 -64
-13 -141 36 -141 90 0 34 21 43 105 43 113 0 135 27 72 88 -25 24 -42 32 -69
32 -20 0 -40 -5 -44 -11z"/>
<path d="M23687 7653 c-14 -13 -6 -23 18 -23 13 0 35 -5 48 -11 29 -13 67 -77
67 -112 0 -36 -28 -97 -45 -97 -7 0 -17 -4 -20 -10 -14 -23 35 -7 69 23 34 29
38 38 43 95 l6 62 -42 40 c-37 35 -48 40 -90 40 -26 0 -51 -3 -54 -7z"/>
<path d="M24802 7635 c-104 -57 -129 -164 -55 -230 24 -21 38 -24 99 -25 44 0
77 5 89 14 17 12 11 14 -53 18 -66 3 -75 6 -97 33 -29 36 -32 71 -6 85 11 5
53 10 95 10 111 0 132 34 57 97 -33 29 -75 28 -129 -2z"/>
<path d="M25615 7650 c-3 -5 -25 -18 -49 -28 -33 -15 -47 -29 -64 -66 -12 -25
-22 -52 -22 -59 0 -32 23 -75 51 -97 28 -20 38 -22 105 -15 41 4 74 11 74 17
0 6 -14 8 -32 6 -70 -11 -138 33 -138 88 0 33 28 44 109 44 38 0 76 3 85 6 47
18 -22 114 -81 114 -18 0 -35 -4 -38 -10z"/>
<path d="M26953 7653 c-25 -9 -13 -23 21 -23 34 0 79 -27 95 -58 5 -9 12 -36
16 -59 6 -39 4 -44 -34 -82 -35 -35 -38 -41 -20 -41 11 0 36 12 54 26 28 21
35 34 40 79 10 77 0 109 -44 139 -35 25 -94 33 -128 19z"/>
<path d="M28150 7645 c-7 -8 -18 -15 -25 -15 -24 0 -73 -49 -89 -90 -21 -52
-12 -90 29 -130 33 -32 34 -32 109 -25 42 4 76 11 76 17 0 6 -12 8 -29 5 -66
-13 -141 34 -141 89 0 33 28 44 109 44 38 0 76 3 85 6 48 18 -20 114 -80 114
-17 0 -37 -7 -44 -15z"/>
<path d="M10539 7638 c-1 -2 -2 -58 -3 -125 -1 -111 0 -123 16 -123 24 0 29
28 26 145 -3 86 -5 100 -20 103 -10 2 -19 2 -19 0z"/>
<path d="M11851 7626 c-7 -8 -10 -52 -8 -122 3 -92 6 -109 20 -112 19 -4 34
39 21 60 -4 7 -7 49 -5 94 2 81 -6 106 -28 80z"/>
<path d="M13391 7626 c-9 -10 -11 -46 -7 -122 3 -59 8 -109 10 -112 3 -2 11
-2 19 1 10 4 13 32 11 118 0 63 -2 117 -3 122 -2 12 -18 8 -30 -7z"/>
<path d="M14140 7626 c-17 -22 -3 -236 16 -236 17 0 15 -11 18 123 3 111 -7
144 -34 113z"/>
<path d="M22770 7620 c0 -11 4 -28 9 -38 5 -9 21 -44 36 -77 46 -103 50 -110
68 -113 46 -9 66 61 22 78 -27 10 -50 49 -71 121 -13 41 -19 49 -39 49 -18 0
-25 -5 -25 -20z"/>
<path d="M23436 7613 c-3 -16 -6 -71 -8 -123 l-3 -95 25 0 c23 0 25 3 22 40
-1 22 -4 72 -5 110 -2 39 -4 76 -5 83 -4 22 -20 12 -26 -15z"/>
<path d="M20432 7513 c3 -118 14 -148 38 -103 9 17 8 26 -3 43 -9 14 -11 29
-6 42 4 11 8 46 8 78 1 51 -1 57 -19 57 -19 0 -20 -6 -18 -117z"/>
<path d="M23630 7618 c-34 -11 -70 -67 -77 -117 -5 -33 -1 -49 21 -81 16 -25
35 -41 49 -42 71 -5 95 15 45 37 -61 25 -76 119 -27 171 27 29 22 44 -11 32z"/>
<path d="M27901 7616 c-9 -11 -10 -29 -1 -76 6 -34 10 -76 8 -94 -2 -17 2 -32
7 -34 11 -3 27 123 23 177 -3 38 -19 49 -37 27z"/>
<path d="M9188 7592 c-13 -16 -30 -47 -37 -70 -13 -37 -12 -46 4 -83 21 -45
40 -59 84 -59 43 0 46 15 7 38 -23 14 -35 30 -40 53 -9 44 2 94 25 115 24 22
24 34 0 34 -11 0 -30 -13 -43 -28z"/>
<path d="M9907 7600 c-30 -24 -34 -47 -13 -76 11 -14 30 -20 78 -24 l63 -5 3
-38 c3 -32 0 -39 -17 -44 -25 -6 -28 -33 -3 -33 44 1 98 83 82 125 -12 33 -32
44 -85 47 -46 3 -50 5 -55 32 -6 38 -20 42 -53 16z"/>
<path d="M15791 7578 c-25 -34 -31 -52 -31 -93 0 -43 4 -56 28 -77 35 -34 71
-43 96 -25 19 14 18 15 -13 31 -63 33 -74 123 -21 171 27 24 25 35 -4 35 -17
0 -34 -13 -55 -42z"/>
<path d="M18528 7593 c-78 -84 -47 -213 52 -213 49 0 51 12 6 38 -53 31 -62
126 -16 167 11 10 20 22 20 27 0 18 -38 6 -62 -19z"/>
<path d="M20612 7597 c-34 -36 -55 -105 -42 -141 17 -50 49 -76 91 -76 50 0
57 15 17 36 -42 21 -38 17 -48 59 -10 42 4 101 25 109 21 8 19 36 -3 36 -10 0
-28 -10 -40 -23z"/>
<path d="M26856 7590 c-30 -36 -47 -92 -40 -130 7 -33 48 -80 72 -81 66 -5 86
15 39 37 -26 12 -40 28 -48 51 -14 44 -4 100 21 113 11 6 20 17 20 25 0 26
-37 16 -64 -15z"/>
<path d="M14793 7525 c-8 -22 -6 -23 72 -30 53 -5 75 -3 89 8 34 25 9 37 -75
37 -63 0 -81 -3 -86 -15z"/>
<path d="M15266 7524 c-10 -26 -7 -122 4 -129 17 -10 30 42 23 90 -6 49 -17
64 -27 39z"/>
<path d="M21490 7530 c-25 -16 1 -28 75 -35 53 -5 75 -3 89 8 33 25 9 37 -72
37 -42 0 -84 -5 -92 -10z"/>
<path d="M25095 7462 c-7 -43 0 -67 16 -57 11 8 12 65 0 84 -6 10 -11 2 -16
-27z"/>
<path d="M16376 7458 c-18 -41 -12 -71 13 -66 19 4 26 44 12 78 -9 25 -9 25
-25 -12z"/>
<path d="M16746 7462 c-12 -23 -12 -33 -3 -53 14 -27 36 -34 75 -24 l27 7 -27
19 c-22 17 -26 25 -21 50 5 25 2 29 -15 29 -13 0 -27 -11 -36 -28z"/>
<path d="M19841 7462 c-8 -20 -9 -36 -2 -55 9 -22 17 -27 45 -27 43 0 55 17
26 37 -14 10 -20 23 -18 41 5 40 -35 43 -51 4z"/>
<path d="M9884 7435 c-13 -32 1 -50 39 -53 48 -4 48 15 1 45 -28 18 -36 20
-40 8z"/>
<path d="M22190 7440 c0 -5 6 -10 14 -10 8 0 18 5 21 10 3 6 -3 10 -14 10 -12
0 -21 -4 -21 -10z"/>
<path d="M8995 7400 c-8 -12 17 -23 41 -18 10 1 19 9 22 16 5 15 -54 17 -63 2z"/>
<path d="M12541 7391 c-10 -6 -2 -16 32 -39 53 -37 66 -75 35 -108 -29 -32 -5
-39 31 -8 27 22 31 32 31 74 0 52 -9 64 -55 74 -16 4 -37 9 -45 11 -8 3 -21 1
-29 -4z"/>
<path d="M17270 7382 c0 -5 16 -22 35 -36 32 -24 35 -32 35 -77 0 -27 4 -49 9
-49 14 0 51 68 51 94 0 40 -31 67 -83 73 -28 4 -47 2 -47 -5z"/>
<path d="M17046 7264 c-19 -50 13 -94 68 -94 48 0 54 17 13 36 -25 12 -37 25
-41 45 -6 31 -30 39 -40 13z"/>
<path d="M12316 7254 c-21 -20 -20 -24 9 -57 27 -28 75 -36 104 -18 11 7 6 13
-22 24 -24 11 -38 24 -43 41 -7 30 -25 33 -48 10z"/>
<path d="M23966 7193 c-4 -32 -2 -61 3 -66 17 -17 32 4 30 46 -3 93 -23 105
-33 20z"/>
<path d="M12506 7191 c-4 -5 0 -11 6 -14 18 -5 48 3 48 14 0 12 -47 12 -54 0z"/>
<path d="M17232 7191 c-10 -6 -7 -10 11 -15 28 -7 57 1 57 15 0 11 -51 11 -68
0z"/>
</g>
</svg>
